<svg width="214" height="213" viewBox="0 0 214 213" fill="none" xmlns="http://www.w3.org/2000/svg">
<g filter="url(#filter0_d_58_3)">
<circle cx="107" cy="85.7046" r="64.6452" fill="url(#paint0_linear_58_3)"/>
</g>
<path d="M119.987 91.6654C119.285 91.3045 115.785 89.59 115.134 89.358C114.483 89.1131 114.006 88.9971 113.536 89.7189C113.059 90.4344 111.705 92.0264 111.28 92.5098C110.867 92.9867 110.448 93.0447 109.746 92.6902C105.569 90.602 102.83 88.9648 100.078 84.2404C99.3494 82.9836 100.806 83.0738 102.166 80.3604C102.398 79.8834 102.282 79.4773 102.102 79.1164C101.921 78.7555 100.503 75.2621 99.9102 73.8377C99.3365 72.452 98.7436 72.6453 98.3117 72.6195C97.8992 72.5937 97.4287 72.5938 96.9518 72.5938C96.4748 72.5938 95.7078 72.7742 95.0569 73.4768C94.4059 74.1922 92.569 75.9131 92.569 79.4064C92.569 82.8998 95.1149 86.2836 95.4629 86.7605C95.8239 87.2375 100.471 94.4047 107.606 97.492C112.118 99.4385 113.884 99.6061 116.139 99.2709C117.512 99.0647 120.342 97.5564 120.928 95.8871C121.515 94.2242 121.515 92.7998 121.341 92.5033C121.167 92.1875 120.69 92.007 119.987 91.6654Z" fill="white"/>
<path d="M133.632 74.8109C132.175 71.3498 130.087 68.2432 127.425 65.5748C124.763 62.9129 121.657 60.8182 118.189 59.368C114.644 57.8791 110.88 57.125 107 57.125H106.871C102.965 57.1443 99.1818 57.9178 95.624 59.4389C92.1887 60.9084 89.1078 62.9967 86.4717 65.6586C83.8355 68.3205 81.7666 71.4143 80.3357 74.8625C78.8533 78.4332 78.1057 82.2295 78.125 86.1353C78.1443 90.6084 79.2143 95.0492 81.2187 99.0195V108.816C81.2187 110.454 82.5465 111.781 84.1836 111.781H93.9869C97.9572 113.786 102.398 114.856 106.871 114.875H107.006C110.867 114.875 114.612 114.127 118.137 112.664C121.586 111.227 124.686 109.164 127.341 106.528C130.003 103.892 132.098 100.811 133.561 97.376C135.082 93.8182 135.856 90.0348 135.875 86.1289C135.894 82.2037 135.134 78.3945 133.632 74.8109ZM123.893 103.041C119.375 107.514 113.381 109.977 107 109.977H106.89C103.004 109.957 99.1432 108.99 95.7336 107.173L95.1922 106.883H86.1172V97.8078L85.8271 97.2664C84.0096 93.8568 83.0428 89.9961 83.0234 86.1096C82.9977 79.6836 85.4533 73.6508 89.9586 69.1068C94.4574 64.5629 100.471 62.0492 106.897 62.0234H107.006C110.229 62.0234 113.355 62.6486 116.301 63.8861C119.175 65.0914 121.753 66.8252 123.971 69.0424C126.181 71.2531 127.921 73.8377 129.127 76.7123C130.377 79.69 131.002 82.8482 130.989 86.1096C130.951 92.5291 128.431 98.5426 123.893 103.041Z" fill="white"/>
<defs>
<filter id="filter0_d_58_3" x="0.98188" y="0.372913" width="212.036" height="212.036" filterUnits="userSpaceOnUse" color-interpolation-filters="sRGB">
<feFlood flood-opacity="0" result="BackgroundImageFix"/>
<feColorMatrix in="SourceAlpha" type="matrix" values="0 0 0 0 0 0 0 0 0 0 0 0 0 0 0 0 0 0 127 0" result="hardAlpha"/>
<feOffset dy="20.6865"/>
<feGaussianBlur stdDeviation="20.6865"/>
<feComposite in2="hardAlpha" operator="out"/>
<feColorMatrix type="matrix" values="0 0 0 0 0.0156863 0 0 0 0 0.4 0 0 0 0 1 0 0 0 0.5 0"/>
<feBlend mode="normal" in2="BackgroundImageFix" result="effect1_dropShadow_58_3"/>
<feBlend mode="normal" in="SourceGraphic" in2="effect1_dropShadow_58_3" result="shape"/>
</filter>
<linearGradient id="paint0_linear_58_3" x1="107" y1="150.35" x2="128.088" y2="22.5436" gradientUnits="userSpaceOnUse">
<stop stop-color="#0061FF"/>
<stop offset="1" stop-color="#60EFFF"/>
</linearGradient>
</defs>
</svg>

