<svg width="112" height="112" viewBox="0 0 112 112" fill="none" xmlns="http://www.w3.org/2000/svg">
<path d="M0 2C0 0.89543 0.895431 0 2 0H110C111.105 0 112 0.895431 112 2V110C112 111.105 111.105 112 110 112H30C13.4315 112 0 98.5685 0 82V2Z" fill="url(#paint0_linear_79_82)"/>
<path d="M71.75 34.25C71.751 31.5385 71.052 28.8727 69.7206 26.5106C68.3892 24.1485 66.4706 22.1702 64.1504 20.767C61.8302 19.3639 59.187 18.5835 56.4768 18.5014C53.7666 18.4193 51.0811 19.0383 48.6802 20.2985C46.2794 21.5586 44.2445 23.4173 42.7726 25.6944C41.3007 27.9716 40.4416 30.5903 40.2785 33.2968C40.1154 36.0034 40.6538 38.7062 41.8416 41.1437C43.0294 43.5811 44.8264 45.6707 47.0585 47.21L40.25 59L45.326 59.2093L48.044 63.5L55.8425 49.991C55.8965 49.991 55.946 50 56 50C56.054 50 56.1035 49.9933 56.1575 49.991L63.956 63.5L66.728 59.3015L71.75 59L64.9415 47.21C67.0421 45.7637 68.7595 43.8283 69.9456 41.5705C71.1317 39.3127 71.751 36.8004 71.75 34.25ZM44.75 34.25C44.75 32.025 45.4098 29.8499 46.646 27.9998C47.8821 26.1498 49.6391 24.7078 51.6948 23.8564C53.7505 23.0049 56.0125 22.7821 58.1948 23.2162C60.3771 23.6503 62.3816 24.7217 63.955 26.2951C65.5283 27.8684 66.5998 29.873 67.0338 32.0552C67.4679 34.2375 67.2451 36.4995 66.3936 38.5552C65.5422 40.6109 64.1002 42.3679 62.2502 43.604C60.4001 44.8402 58.225 45.5 56 45.5C53.0163 45.5 50.1548 44.3147 48.0451 42.205C45.9353 40.0952 44.75 37.2337 44.75 34.25Z" fill="white"/>
<path d="M56 41C59.7279 41 62.75 37.9779 62.75 34.25C62.75 30.5221 59.7279 27.5 56 27.5C52.2721 27.5 49.25 30.5221 49.25 34.25C49.25 37.9779 52.2721 41 56 41Z" fill="white"/>
<path d="M37.62 78.4V81.1H34.02V91H31.32V81.1H27.72V78.4H37.62ZM39.4179 91V78.4H44.5479C45.2379 78.4 45.8619 78.574 46.4199 78.922C46.9779 79.27 47.4189 79.738 47.7429 80.326C48.0729 80.908 48.2379 81.55 48.2379 82.252C48.2379 82.792 48.1479 83.296 47.9679 83.764C47.7879 84.226 47.5299 84.637 47.1939 84.997C46.8639 85.351 46.4739 85.636 46.0239 85.852L49.0119 91H45.8979L43.0539 86.104H42.1179V91H39.4179ZM42.1179 83.404H44.2239C44.4639 83.404 44.6829 83.344 44.8809 83.224C45.0789 83.098 45.2379 82.933 45.3579 82.729C45.4779 82.525 45.5379 82.3 45.5379 82.054C45.5379 81.808 45.4779 81.583 45.3579 81.379C45.2379 81.175 45.0789 81.013 44.8809 80.893C44.6829 80.767 44.4639 80.704 44.2239 80.704H42.1179V83.404ZM55.9385 91.234C54.9305 91.234 54.0395 90.988 53.2655 90.496C52.4975 90.004 51.8945 89.344 51.4565 88.516C51.0245 87.682 50.8085 86.758 50.8085 85.744V78.4H53.5085V85.744C53.5085 86.254 53.6045 86.722 53.7965 87.148C53.9885 87.568 54.2645 87.904 54.6245 88.156C54.9905 88.408 55.4285 88.534 55.9385 88.534C56.4545 88.534 56.8925 88.411 57.2525 88.165C57.6125 87.913 57.8855 87.577 58.0715 87.157C58.2575 86.731 58.3505 86.26 58.3505 85.744V78.4H61.0505V85.744C61.0505 86.506 60.9275 87.22 60.6815 87.886C60.4355 88.546 60.0845 89.128 59.6285 89.632C59.1725 90.136 58.6325 90.529 58.0085 90.811C57.3845 91.093 56.6945 91.234 55.9385 91.234ZM67.8267 91.234C67.1187 91.234 66.4407 91.123 65.7927 90.901C65.1447 90.673 64.5777 90.349 64.0917 89.929C63.6057 89.503 63.2547 88.996 63.0387 88.408L65.5767 87.472C65.6367 87.646 65.7687 87.814 65.9727 87.976C66.1827 88.138 66.4467 88.273 66.7647 88.381C67.0827 88.483 67.4367 88.534 67.8267 88.534C68.1867 88.534 68.5257 88.483 68.8437 88.381C69.1617 88.273 69.4197 88.126 69.6177 87.94C69.8157 87.754 69.9147 87.538 69.9147 87.292C69.9147 87.04 69.8097 86.833 69.5997 86.671C69.3957 86.503 69.1317 86.371 68.8077 86.275C68.4897 86.173 68.1627 86.098 67.8267 86.05C66.9147 85.918 66.0957 85.702 65.3697 85.402C64.6497 85.096 64.0797 84.676 63.6597 84.142C63.2457 83.608 63.0387 82.93 63.0387 82.108C63.0387 81.322 63.2607 80.635 63.7047 80.047C64.1487 79.453 64.7337 78.991 65.4597 78.661C66.1917 78.331 66.9807 78.166 67.8267 78.166C68.5347 78.166 69.2127 78.28 69.8607 78.508C70.5147 78.73 71.0847 79.054 71.5707 79.48C72.0567 79.906 72.4047 80.416 72.6147 81.01L70.0767 81.928C70.0167 81.754 69.8817 81.589 69.6717 81.433C69.4677 81.271 69.2067 81.139 68.8887 81.037C68.5707 80.935 68.2167 80.884 67.8267 80.884C67.4787 80.878 67.1457 80.929 66.8277 81.037C66.5097 81.145 66.2487 81.292 66.0447 81.478C65.8407 81.664 65.7387 81.874 65.7387 82.108C65.7387 82.432 65.8347 82.675 66.0267 82.837C66.2187 82.993 66.4707 83.104 66.7827 83.17C67.1007 83.236 67.4487 83.296 67.8267 83.35C68.6907 83.476 69.4857 83.701 70.2117 84.025C70.9377 84.349 71.5197 84.781 71.9577 85.321C72.3957 85.861 72.6147 86.518 72.6147 87.292C72.6147 88.078 72.3927 88.768 71.9487 89.362C71.5107 89.95 70.9287 90.409 70.2027 90.739C69.4767 91.069 68.6847 91.234 67.8267 91.234ZM83.7802 78.4V81.1H80.1802V91H77.4802V81.1H73.8802V78.4H83.7802Z" fill="white"/>
<defs>
<linearGradient id="paint0_linear_79_82" x1="-30.7097" y1="-19.871" x2="156.71" y2="120.129" gradientUnits="userSpaceOnUse">
<stop offset="0.005" stop-color="#308DD2"/>
<stop offset="0.595" stop-color="#308DD2" stop-opacity="0.4"/>
<stop offset="1" stop-color="#308DD2"/>
</linearGradient>
</defs>
</svg>
