<svg width="214" height="213" viewBox="0 0 214 213" fill="none" xmlns="http://www.w3.org/2000/svg">
<g filter="url(#filter0_d_111_222)">
<circle cx="107" cy="85.7046" r="64.6452" fill="url(#paint0_linear_111_222)" fill-opacity="0.8" shape-rendering="crispEdges"/>
</g>
<path d="M121.987 90.6654C121.285 90.3045 117.785 88.59 117.134 88.358C116.483 88.1131 116.006 87.9971 115.536 88.7189C115.059 89.4344 113.705 91.0264 113.28 91.5098C112.867 91.9867 112.448 92.0447 111.746 91.6902C107.569 89.602 104.83 87.9648 102.078 83.2404C101.349 81.9836 102.806 82.0738 104.166 79.3604C104.398 78.8834 104.282 78.4773 104.102 78.1164C103.921 77.7555 102.503 74.2621 101.91 72.8377C101.337 71.452 100.744 71.6453 100.312 71.6195C99.8992 71.5937 99.4287 71.5938 98.9518 71.5938C98.4748 71.5938 97.7078 71.7742 97.0568 72.4768C96.4059 73.1922 94.5689 74.9131 94.5689 78.4064C94.5689 81.8998 97.1148 85.2836 97.4629 85.7605C97.8238 86.2375 102.471 93.4047 109.606 96.492C114.118 98.4385 115.884 98.6061 118.139 98.2709C119.512 98.0647 122.342 96.5564 122.928 94.8871C123.515 93.2242 123.515 91.7998 123.341 91.5033C123.167 91.1875 122.69 91.007 121.987 90.6654Z" fill="white"/>
<path d="M135.632 73.8109C134.175 70.3498 132.087 67.2432 129.425 64.5748C126.763 61.9129 123.657 59.8182 120.189 58.368C116.644 56.8791 112.88 56.125 109 56.125H108.871C104.965 56.1443 101.182 56.9178 97.624 58.4389C94.1887 59.9084 91.1078 61.9967 88.4717 64.6586C85.8355 67.3205 83.7666 70.4143 82.3357 73.8625C80.8533 77.4332 80.1057 81.2295 80.125 85.1353C80.1443 89.6084 81.2143 94.0492 83.2187 98.0195V107.816C83.2187 109.454 84.5465 110.781 86.1836 110.781H95.9869C99.9572 112.786 104.398 113.856 108.871 113.875H109.006C112.867 113.875 116.612 113.127 120.137 111.664C123.586 110.227 126.686 108.164 129.341 105.528C132.003 102.892 134.098 99.8113 135.561 96.376C137.082 92.8182 137.856 89.0348 137.875 85.1289C137.894 81.2037 137.134 77.3945 135.632 73.8109ZM125.893 102.041C121.375 106.514 115.381 108.977 109 108.977H108.89C105.004 108.957 101.143 107.99 97.7336 106.173L97.1922 105.883H88.1172V96.8078L87.8271 96.2664C86.0096 92.8568 85.0428 88.9961 85.0234 85.1096C84.9977 78.6836 87.4533 72.6508 91.9586 68.1068C96.4574 63.5629 102.471 61.0492 108.897 61.0234H109.006C112.229 61.0234 115.355 61.6486 118.301 62.8861C121.175 64.0914 123.753 65.8252 125.971 68.0424C128.181 70.2531 129.921 72.8377 131.127 75.7123C132.377 78.69 133.002 81.8482 132.989 85.1096C132.951 91.5291 130.431 97.5426 125.893 102.041Z" fill="white"/>
<defs>
<filter id="filter0_d_111_222" x="0.98188" y="0.372913" width="212.036" height="212.036" filterUnits="userSpaceOnUse" color-interpolation-filters="sRGB">
<feFlood flood-opacity="0" result="BackgroundImageFix"/>
<feColorMatrix in="SourceAlpha" type="matrix" values="0 0 0 0 0 0 0 0 0 0 0 0 0 0 0 0 0 0 127 0" result="hardAlpha"/>
<feOffset dy="20.6865"/>
<feGaussianBlur stdDeviation="20.6865"/>
<feComposite in2="hardAlpha" operator="out"/>
<feColorMatrix type="matrix" values="0 0 0 0 0.0156863 0 0 0 0 0.4 0 0 0 0 1 0 0 0 0.5 0"/>
<feBlend mode="normal" in2="BackgroundImageFix" result="effect1_dropShadow_111_222"/>
<feBlend mode="normal" in="SourceGraphic" in2="effect1_dropShadow_111_222" result="shape"/>
</filter>
<linearGradient id="paint0_linear_111_222" x1="107" y1="150.35" x2="128.088" y2="22.5436" gradientUnits="userSpaceOnUse">
<stop stop-color="#0061FF"/>
<stop offset="1" stop-color="#60EFFF"/>
</linearGradient>
</defs>
</svg>
