<svg width="27" height="27" viewBox="0 0 27 27" fill="none" xmlns="http://www.w3.org/2000/svg">
<rect x="26.5" y="26.5" width="26" height="26" rx="13" transform="rotate(-180 26.5 26.5)" stroke="#271E68"/>
<mask id="path-2-inside-1_94_560" fill="white">
<path d="M13.8429 18.631L16.9823 15.4916C17.1739 15.3 17.1739 14.9894 16.9823 14.7978C16.7907 14.6063 16.4802 14.6063 16.2886 14.7978L13.9866 17.0998L13.9866 8.71551C13.9866 8.44462 13.7669 8.22498 13.496 8.22498C13.2252 8.22498 13.0055 8.44462 13.0055 8.71551L13.0055 17.0998L10.7035 14.7979C10.5119 14.6063 10.2014 14.6063 10.0098 14.7979C9.91406 14.8937 9.8661 15.0192 9.8661 15.1448C9.8661 15.2703 9.91406 15.3959 10.0098 15.4916L13.1492 18.631C13.3408 18.8226 13.6513 18.8226 13.8429 18.631Z"/>
</mask>
<path d="M13.8429 18.631L16.9823 15.4916C17.1739 15.3 17.1739 14.9894 16.9823 14.7978C16.7907 14.6063 16.4802 14.6063 16.2886 14.7978L13.9866 17.0998L13.9866 8.71551C13.9866 8.44462 13.7669 8.22498 13.496 8.22498C13.2252 8.22498 13.0055 8.44462 13.0055 8.71551L13.0055 17.0998L10.7035 14.7979C10.5119 14.6063 10.2014 14.6063 10.0098 14.7979C9.91406 14.8937 9.8661 15.0192 9.8661 15.1448C9.8661 15.2703 9.91406 15.3959 10.0098 15.4916L13.1492 18.631C13.3408 18.8226 13.6513 18.8226 13.8429 18.631Z" fill="#201764"/>
<path d="M13.8429 18.631L13.1358 17.9239L13.8429 18.631ZM16.9823 15.4916L17.6894 16.1987L17.6894 16.1987L16.9823 15.4916ZM16.2886 14.7978L15.5815 14.0907L15.5815 14.0907L16.2886 14.7978ZM13.9866 17.0998L12.9866 17.0998L12.9866 19.5141L14.6937 17.807L13.9866 17.0998ZM13.0055 17.0998L12.2984 17.807L14.0055 19.514L14.0055 17.0998L13.0055 17.0998ZM10.7035 14.7979L9.9964 15.505L9.99641 15.505L10.7035 14.7979ZM10.0098 14.7979L9.30266 14.0908L9.30252 14.091L10.0098 14.7979ZM10.0098 15.4916L9.30237 16.1985L9.30267 16.1988L10.0098 15.4916ZM13.1492 18.631L13.8563 17.9239L13.8563 17.9239L13.1492 18.631ZM14.55 19.3381L17.6894 16.1987L16.2752 14.7845L13.1358 17.9239L14.55 19.3381ZM17.6894 16.1987C18.2715 15.6166 18.2715 14.6728 17.6894 14.0907L16.2752 15.5049C16.0762 15.306 16.0762 14.9834 16.2752 14.7845L17.6894 16.1987ZM17.6894 14.0907C17.1073 13.5086 16.1636 13.5086 15.5815 14.0907L16.9957 15.5049C16.7968 15.7039 16.4742 15.7039 16.2752 15.5049L17.6894 14.0907ZM15.5815 14.0907L13.2795 16.3927L14.6937 17.807L16.9957 15.5049L15.5815 14.0907ZM14.9866 17.0998L14.9866 8.71551L12.9866 8.71551L12.9866 17.0998L14.9866 17.0998ZM14.9866 8.71551C14.9866 7.89233 14.3192 7.22498 13.496 7.22498L13.496 9.22498C13.2147 9.22498 12.9866 8.9969 12.9866 8.71551L14.9866 8.71551ZM13.496 7.22498C12.673 7.22498 12.0055 7.89228 12.0055 8.71551L14.0055 8.71551C14.0055 8.99695 13.7774 9.22498 13.496 9.22498L13.496 7.22498ZM12.0055 8.71551L12.0055 17.0998L14.0055 17.0998L14.0055 8.71551L12.0055 8.71551ZM13.7126 16.3927L11.4106 14.0908L9.99641 15.505L12.2984 17.807L13.7126 16.3927ZM11.4106 14.0908C10.8285 13.5087 9.88477 13.5087 9.30266 14.0908L10.7169 15.505C10.5179 15.704 10.1953 15.704 9.9964 15.505L11.4106 14.0908ZM9.30252 14.091C9.012 14.3816 8.8661 14.7647 8.8661 15.1448L10.8661 15.1448C10.8661 15.2738 10.8161 15.4057 10.717 15.5049L9.30252 14.091ZM8.8661 15.1448C8.8661 15.525 9.01208 15.9079 9.30237 16.1985L10.7172 14.7848C10.816 14.8838 10.8661 15.0156 10.8661 15.1448L8.8661 15.1448ZM9.30267 16.1988L12.4421 19.3381L13.8563 17.9239L10.7169 14.7845L9.30267 16.1988ZM12.4421 19.3381C13.0242 19.9202 13.9679 19.9202 14.55 19.3381L13.1358 17.9239C13.3347 17.7249 13.6573 17.7249 13.8563 17.9239L12.4421 19.3381Z" fill="#271E68" mask="url(#path-2-inside-1_94_560)"/>
</svg>
